<?xml version="1.0" encoding="UTF-8" standalone="no"?>
<svg width="52px" height="55px" viewBox="0 0 52 55" version="1.1" xmlns="http://www.w3.org/2000/svg" xmlns:xlink="http://www.w3.org/1999/xlink">
    <!-- Generator: Sketch 49.3 (51167) - http://www.bohemiancoding.com/sketch -->
    <title>glitch</title>
    <desc>Created with Sketch.</desc>
    <defs></defs>
    <g id="Page-1" stroke="none" stroke-width="1" fill="none" fill-rule="evenodd">
        <g id="glitch" fill="#6441A4">
            <path d="M3.65625,0 L0,9.34375 L0,47.53125 L13,47.53125 L13,54.4375 L20.3125,54.4375 L27.21875,47.53125 L37.78125,47.53125 L52,33.3125 L52,0 L3.65625,0 Z M47.125,30.875 L39,39 L26,39 L19.09375,45.90625 L19.09375,39 L8.125,39 L8.125,4.875 L47.125,4.875 L47.125,30.875 Z M39,14.21875 L39,28.4375 L34.125,28.4375 L34.125,14.21875 L39,14.21875 Z M26,14.21875 L26,28.4375 L21.125,28.4375 L21.125,14.21875 L26,14.21875 Z" id="Shape"></path>
        </g>
    </g>
</svg>